# xmcd
#
# Track frame offsets: 
#        150
#        23943
#        46346
#        62600
#        78885
#        110962
#        131399
#        149544
#        164870
#        185122
#
# Disc length: 2772 seconds
#
# Revision: 0
# Processed by: cddbd v1.5.2PL0 Copyright (c) Steve Scherf et al.
# Submitted via: ExactAudioCopy v1.0b1
#
DISCID=940ad20a
DTITLE=PeeWee Bluesgang - Boudoir de Luxe
DYEAR=2011
DGENRE=Blues
TTITLE0=Just in Heaven
TTITLE1=Too much Soul
TTITLE2=Boudoir de Luxe
TTITLE3=Saturday Night
TTITLE4=Tikki Bar is open
TTITLE5=Come back to me
TTITLE6=Give me your Love
TTITLE7=Can't pay
TTITLE8=It's just the Way
TTITLE9=Armageddon 2012
EXTD=
EXTT0=
EXTT1=
EXTT2=
EXTT3=
EXTT4=
EXTT5=
EXTT6=
EXTT7=
EXTT8=
EXTT9=
PLAYORDER=
